<?xml version="1.0" standalone="no"?>
<!DOCTYPE svg PUBLIC "-//W3C//DTD SVG 20010904//EN"
 "http://www.w3.org/TR/2001/REC-SVG-20010904/DTD/svg10.dtd">
<svg version="1.0" xmlns="http://www.w3.org/2000/svg"
 width="527.000000pt" height="594.000000pt" viewBox="0 0 527.000000 594.000000"
 preserveAspectRatio="xMidYMid meet">
<metadata>
Created by potrace 1.11, written by Peter Selinger 2001-2013
</metadata>
<g transform="translate(0.000000,594.000000) scale(0.100000,-0.100000)"
fill="#000000" stroke="none">
<path d="M2545 5809 c-60 -4 -130 -15 -154 -23 -24 -9 -56 -16 -71 -16 -14 0
-58 -11 -97 -25 -39 -13 -91 -27 -115 -31 -23 -4 -48 -11 -54 -15 -6 -5 -22
-9 -35 -8 -54 2 -158 -18 -185 -36 -16 -11 -50 -25 -76 -32 -26 -7 -65 -23
-85 -37 -21 -13 -53 -30 -70 -37 -18 -8 -33 -17 -33 -21 0 -3 -14 -9 -31 -13
-17 -4 -42 -13 -57 -21 -15 -8 -32 -14 -38 -14 -5 0 -23 -13 -39 -30 -16 -16
-34 -30 -40 -30 -18 0 -46 -38 -32 -44 16 -6 -58 -75 -109 -101 -22 -11 -44
-24 -50 -30 -41 -37 -65 -55 -73 -55 -5 0 -42 -27 -81 -60 -39 -33 -75 -60
-80 -60 -5 0 -28 -21 -52 -47 -23 -26 -62 -67 -85 -90 -24 -24 -43 -49 -43
-56 0 -7 -13 -28 -28 -47 -16 -19 -43 -64 -62 -100 -72 -142 -82 -160 -91
-160 -11 0 -79 -107 -79 -125 0 -8 -4 -15 -10 -15 -5 0 -10 -6 -10 -14 0 -8
-5 -27 -12 -43 -6 -15 -10 -33 -9 -40 2 -13 -33 -83 -61 -125 -10 -14 -18 -35
-18 -46 0 -12 -4 -23 -8 -26 -5 -3 -15 -38 -22 -78 -7 -40 -16 -77 -20 -83 -8
-11 -10 -20 -39 -132 -20 -77 -17 -112 15 -193 15 -38 15 -44 0 -88 -10 -26
-23 -58 -31 -72 -7 -14 -16 -56 -19 -95 -9 -107 -23 -222 -29 -231 -3 -5 -8
-38 -11 -74 -4 -36 -11 -99 -16 -140 -8 -67 -14 -199 -10 -225 1 -5 1 -31 0
-56 -1 -25 6 -64 15 -87 10 -23 15 -55 12 -70 -3 -15 1 -42 9 -61 8 -18 14
-48 14 -67 0 -18 5 -45 12 -61 6 -15 12 -53 13 -83 1 -58 18 -166 34 -216 5
-16 14 -56 21 -89 6 -33 16 -68 21 -77 5 -10 9 -25 9 -33 0 -8 4 -23 9 -33 25
-45 51 -110 51 -124 0 -9 7 -21 15 -28 8 -7 15 -23 15 -36 0 -13 4 -24 9 -24
5 0 14 -13 19 -29 6 -16 24 -48 41 -71 17 -24 31 -51 31 -61 0 -10 16 -34 35
-55 19 -20 35 -40 35 -44 0 -21 50 -112 92 -165 57 -74 104 -115 130 -115 14
0 18 -5 14 -15 -3 -8 3 -20 13 -27 10 -7 21 -22 25 -33 7 -25 72 -95 86 -95 6
0 13 -7 16 -15 4 -8 14 -15 23 -15 9 0 34 -19 56 -41 22 -23 94 -87 159 -143
66 -55 149 -128 185 -160 36 -33 89 -74 118 -92 28 -19 54 -38 58 -44 3 -5 15
-10 25 -10 11 0 36 -7 57 -16 21 -9 47 -20 58 -24 11 -4 45 -19 75 -33 122
-56 184 -76 382 -124 l153 -38 350 0 c413 0 443 4 675 97 96 38 184 81 188 91
2 4 12 7 22 7 11 0 34 13 52 28 45 38 78 58 112 66 16 4 54 25 84 47 30 21 61
39 69 39 7 0 13 3 13 8 0 15 183 112 212 112 10 0 18 7 18 15 0 8 6 15 13 15
7 0 35 22 62 50 27 27 55 50 62 50 27 0 122 70 213 159 36 34 75 67 87 72 12
4 30 21 39 36 10 15 29 40 43 54 14 14 40 43 58 65 17 21 43 53 57 70 14 18
26 40 26 50 1 11 14 42 31 69 33 56 89 171 89 184 0 4 10 23 23 42 13 20 28
65 36 109 7 41 19 94 27 117 7 24 18 66 23 95 32 180 42 237 46 268 3 19 9 58
15 85 17 87 25 752 10 849 -11 74 -11 88 2 108 13 20 14 53 7 223 -5 110 -13
228 -19 261 -5 34 -10 81 -10 105 0 24 -5 63 -10 86 -6 23 -17 88 -25 145 -8
57 -30 162 -50 233 -20 72 -40 150 -46 175 -12 55 -24 84 -120 275 -85 170
-107 202 -211 319 -157 175 -294 286 -355 286 -11 0 -40 17 -64 39 -46 40
-281 200 -351 238 -21 12 -44 26 -51 31 -7 6 -28 11 -47 13 -19 2 -50 13 -68
26 -17 13 -62 30 -98 38 -36 7 -76 21 -90 30 -45 29 -170 47 -344 49 -114 1
-174 6 -195 16 -16 7 -33 13 -37 12 -3 -1 -30 5 -60 12 -29 8 -75 17 -103 21
-27 3 -59 7 -70 9 -11 1 -69 -1 -130 -5z m-1408 -1539 c49 -47 105 -93 124
-102 19 -10 43 -26 53 -37 10 -10 29 -22 42 -25 14 -4 46 -22 73 -41 27 -19
56 -35 65 -35 9 0 24 -8 34 -18 27 -27 100 -74 157 -101 28 -14 60 -35 72 -48
26 -27 87 -32 97 -8 7 19 42 20 49 1 3 -8 40 -24 81 -36 42 -13 81 -29 87 -36
6 -8 17 -14 24 -14 6 0 22 -9 35 -20 13 -11 35 -20 50 -20 29 0 67 36 65 60
-1 8 -3 34 -3 57 -2 33 -7 45 -26 55 -119 65 -162 105 -158 148 2 19 -7 35
-35 62 -94 89 -92 126 2 45 28 -23 68 -49 90 -56 22 -8 52 -22 67 -32 14 -11
31 -19 37 -19 6 0 58 -22 114 -50 57 -27 110 -50 118 -50 8 0 41 -13 72 -30
32 -16 67 -30 78 -30 10 0 27 -4 37 -10 9 -5 53 -20 97 -34 94 -29 168 -54
210 -72 17 -7 44 -16 60 -19 17 -4 50 -14 75 -22 25 -9 61 -19 80 -23 38 -8
125 -37 152 -51 10 -5 36 -9 58 -9 22 0 57 -7 77 -15 19 -8 47 -15 61 -15 41
0 145 -21 172 -35 14 -7 41 -16 60 -20 19 -4 48 -14 65 -21 89 -38 213 -84
227 -84 9 0 20 -4 23 -10 3 -5 16 -10 29 -10 12 0 51 -11 86 -25 35 -14 76
-25 91 -25 14 0 46 -7 70 -15 24 -9 78 -23 119 -31 41 -9 80 -20 86 -25 7 -5
35 -12 64 -16 44 -5 60 -13 102 -52 49 -46 49 -47 53 -116 2 -39 10 -88 18
-110 10 -28 11 -47 5 -65 -10 -25 -6 -158 11 -345 10 -120 7 -246 -8 -302 -6
-23 -10 -45 -9 -50 1 -4 -3 -24 -9 -43 -6 -19 -18 -69 -26 -110 -19 -93 -62
-309 -83 -415 -9 -44 -22 -95 -30 -113 -8 -18 -14 -39 -14 -47 0 -9 -4 -23 -9
-33 -5 -9 -25 -50 -44 -89 -40 -82 -80 -142 -128 -194 -19 -20 -54 -61 -79
-90 -77 -90 -146 -156 -207 -195 -32 -21 -60 -38 -63 -39 -17 -1 -149 -103
-153 -117 -3 -10 -18 -23 -34 -30 -15 -7 -51 -29 -80 -50 -29 -21 -56 -38 -60
-38 -9 0 -86 -55 -163 -116 -46 -37 -252 -140 -350 -176 -90 -33 -169 -48
-280 -55 -58 -3 -111 -10 -117 -15 -18 -14 -467 -13 -523 2 -25 6 -83 20 -129
31 -148 35 -322 97 -336 119 -3 5 -54 33 -112 62 -71 35 -120 67 -147 96 -23
24 -63 60 -91 80 -55 40 -256 223 -348 317 -82 83 -223 259 -280 349 -26 41
-63 93 -82 116 -19 23 -35 50 -35 60 0 11 -5 22 -11 26 -17 10 -44 81 -74 190
-15 54 -31 108 -36 119 -11 23 -64 230 -85 328 -18 89 -27 165 -45 402 -13
166 -14 361 -4 415 8 41 8 53 -1 98 -3 18 -2 38 4 45 5 6 8 25 7 42 -2 16 0
34 4 40 11 13 20 59 31 155 14 123 22 164 37 186 9 15 14 56 14 137 0 82 4
120 13 129 31 32 49 98 26 98 -24 0 -7 29 25 44 19 9 35 24 35 33 0 19 35 50
110 100 30 20 59 43 63 50 4 7 12 13 18 13 15 0 68 51 76 74 4 12 6 29 4 39
-1 9 3 17 9 17 7 0 21 11 32 25 11 14 24 25 28 23 5 -2 48 -41 97 -88z"/>
<path d="M1068 3437 c-26 -20 -22 -44 13 -88 l31 -39 -32 0 c-42 0 -89 -29
-97 -58 -6 -25 3 -38 39 -56 14 -7 24 -22 26 -40 3 -24 0 -27 -20 -25 -34 4
-90 -11 -110 -29 -22 -19 -23 -58 -2 -66 33 -13 74 -6 86 14 8 13 24 20 43 20
16 0 37 5 45 10 13 9 13 12 -2 21 -10 5 -18 17 -18 25 0 23 43 13 54 -12 9
-20 17 -22 81 -20 39 1 76 5 82 9 18 11 53 -15 53 -38 0 -11 7 -42 15 -70 9
-27 18 -95 21 -150 4 -89 15 -175 29 -242 3 -12 16 -34 29 -48 21 -23 30 -25
105 -25 74 0 83 -3 80 -26 -1 -8 22 -24 34 -24 4 0 7 7 7 15 0 9 10 19 23 24
12 5 29 17 38 27 18 21 49 112 49 143 0 11 5 23 10 26 13 8 13 142 0 214 -5
31 -14 97 -19 146 -5 50 -17 105 -26 123 -9 18 -24 58 -34 90 -20 68 -70 151
-91 152 -8 0 -28 -7 -45 -16 -17 -9 -49 -16 -73 -15 -35 2 -48 -3 -72 -28 -34
-34 -65 -32 -74 5 -4 13 -14 24 -23 24 -9 0 -25 8 -36 18 -25 23 -193 30 -219
9z"/>
<path d="M3546 3388 c-22 -5 -47 -15 -56 -23 -9 -8 -23 -15 -32 -15 -8 0 -21
-11 -28 -25 -19 -36 -64 -55 -129 -55 l-56 -1 -29 -89 c-28 -85 -29 -92 -17
-157 6 -37 16 -95 22 -127 5 -33 18 -85 28 -115 20 -59 34 -119 52 -213 9 -52
14 -60 55 -88 56 -38 73 -38 109 0 24 26 36 30 79 30 58 0 64 4 90 44 15 24
18 47 17 130 -2 113 -5 168 -16 270 l-8 69 38 34 c20 18 44 33 52 33 15 0 16
1 74 50 29 24 38 39 41 73 5 41 -11 77 -34 77 -20 0 -91 -79 -85 -94 8 -21 -9
-20 -33 2 -16 15 -18 24 -11 50 10 34 10 35 -44 62 -23 11 -31 24 -35 51 l-5
35 -39 -8z"/>
<path d="M1809 2243 c-79 -5 -120 -40 -126 -108 -3 -28 -10 -59 -16 -69 -29
-56 10 -248 62 -309 41 -48 81 -110 81 -127 1 -8 14 -31 30 -50 17 -19 30 -42
30 -52 0 -18 97 -138 158 -196 45 -42 146 -114 197 -140 22 -11 57 -34 78 -51
25 -19 55 -32 85 -36 26 -3 62 -13 80 -21 18 -7 48 -14 67 -14 18 0 37 -4 40
-10 14 -23 173 -1 209 29 6 5 29 13 51 17 68 12 122 43 162 91 21 25 59 69 85
97 27 28 48 57 48 64 0 6 4 12 9 12 5 0 11 8 15 18 3 9 17 35 31 57 14 22 28
48 32 58 3 9 27 61 54 114 44 85 50 106 56 182 9 113 4 351 -8 373 -20 37 -52
48 -140 48 -109 -1 -100 0 -274 -10 -91 -6 -189 -5 -250 1 -55 5 -183 11 -285
14 -102 2 -209 9 -239 15 -51 9 -196 11 -322 3z m431 -199 c41 -9 84 -18 95
-20 11 -2 44 -10 74 -19 66 -18 97 -19 346 -11 223 8 277 11 352 21 l51 7 8
-48 c9 -61 -9 -233 -29 -271 -7 -15 -21 -41 -30 -58 -9 -16 -26 -57 -39 -90
-12 -33 -27 -67 -34 -75 -6 -8 -19 -29 -28 -47 -29 -58 -140 -150 -208 -172
-21 -7 -38 -16 -38 -20 0 -12 -84 -30 -115 -24 -17 3 -52 26 -80 52 -27 26
-68 56 -90 68 -278 146 -434 286 -480 429 -9 27 -20 56 -25 65 -14 27 -15 156
0 174 7 8 27 15 45 15 18 0 38 6 45 14 23 28 81 31 180 10z"/>
</g>
</svg>
