<?xml version="1.0" standalone="no"?>
<!DOCTYPE svg PUBLIC "-//W3C//DTD SVG 20010904//EN"
 "http://www.w3.org/TR/2001/REC-SVG-20010904/DTD/svg10.dtd">
<svg version="1.0" xmlns="http://www.w3.org/2000/svg"
 width="517.000000pt" height="620.000000pt" viewBox="0 0 517.000000 620.000000"
 preserveAspectRatio="xMidYMid meet">
<metadata>
Created by potrace 1.11, written by Peter Selinger 2001-2013
</metadata>
<g transform="translate(0.000000,620.000000) scale(0.100000,-0.100000)"
fill="#000000" stroke="none">
<path d="M2847 6010 c-11 -7 -62 -11 -130 -10 -134 2 -278 -8 -291 -21 -6 -5
-22 -9 -38 -9 -17 0 -41 -13 -64 -32 -55 -49 -249 -154 -314 -171 -14 -4 -49
-22 -77 -41 -29 -19 -69 -40 -89 -48 -20 -7 -47 -23 -61 -35 -13 -13 -27 -23
-31 -23 -7 0 -154 -120 -217 -177 -16 -15 -33 -26 -37 -25 -5 1 -8 -5 -8 -13
0 -8 -4 -15 -8 -15 -4 0 -45 -36 -90 -81 -45 -45 -82 -79 -82 -77 0 3 -20 -14
-45 -38 -25 -23 -45 -47 -45 -53 0 -11 -39 -58 -90 -108 -124 -122 -160 -159
-160 -165 0 -11 -26 -42 -92 -112 -32 -33 -58 -64 -58 -69 0 -6 -13 -23 -30
-39 -16 -15 -30 -37 -30 -47 0 -10 -7 -21 -15 -25 -8 -3 -15 -14 -15 -25 0
-11 -8 -25 -17 -30 -10 -6 -15 -11 -10 -11 4 0 -11 -17 -33 -39 -22 -21 -40
-42 -40 -45 0 -10 -82 -128 -97 -141 -20 -16 -70 -119 -66 -133 3 -7 -11 -28
-31 -47 -20 -18 -36 -40 -36 -47 0 -8 -7 -23 -15 -34 -8 -10 -15 -26 -15 -34
0 -9 -16 -45 -35 -80 -19 -36 -35 -72 -35 -82 0 -9 -15 -34 -33 -56 -26 -31
-33 -48 -31 -74 3 -36 -12 -121 -27 -153 -5 -11 -16 -54 -23 -95 -8 -41 -24
-108 -35 -149 -12 -41 -21 -87 -21 -101 0 -15 -3 -30 -6 -33 -4 -4 -8 -21 -10
-39 -11 -128 -15 -189 -20 -303 -3 -71 -7 -149 -7 -172 -1 -24 -4 -43 -7 -43
-4 0 -5 -17 -2 -37 2 -21 3 -42 3 -48 0 -59 2 -204 3 -260 2 -70 45 -291 71
-365 7 -21 23 -80 34 -132 52 -241 166 -479 297 -618 44 -48 98 -108 119 -134
41 -51 109 -100 208 -153 33 -17 84 -52 113 -77 29 -25 55 -46 59 -46 3 0 11
-4 18 -10 52 -42 149 -109 165 -115 11 -3 40 -21 64 -40 23 -19 53 -35 65 -35
12 0 23 -4 25 -8 6 -16 76 -63 99 -67 13 -3 29 -10 34 -17 6 -7 33 -21 60 -31
28 -10 86 -31 130 -47 44 -16 99 -30 121 -30 26 0 47 -6 55 -16 24 -29 135
-71 234 -89 39 -7 86 -18 105 -24 19 -6 50 -11 67 -11 18 0 33 -4 33 -10 0 -5
9 -10 20 -10 11 0 20 -4 20 -9 0 -10 30 -16 175 -35 116 -15 201 -13 369 10
269 36 323 44 371 53 28 6 70 14 95 19 55 11 160 53 197 80 16 11 39 23 53 27
14 4 30 11 35 15 6 4 25 11 43 15 18 4 46 19 61 34 16 15 45 38 65 50 20 13
34 27 30 32 -3 5 5 9 17 9 12 0 36 11 53 24 17 13 63 40 101 61 39 20 100 58
136 83 36 26 93 66 126 89 61 42 226 209 295 298 21 28 57 73 79 100 22 28 51
73 63 100 13 28 43 77 68 110 25 33 56 80 68 105 12 25 37 70 55 100 31 53 43
92 80 265 10 44 21 91 26 105 11 32 29 182 23 191 -2 4 3 38 12 75 24 107 18
325 -17 544 -5 30 -14 91 -19 135 -14 98 -15 106 -23 125 -9 22 -17 86 -22
165 -4 79 -18 142 -34 158 -6 6 -11 28 -11 48 0 21 -4 40 -9 43 -5 3 -11 20
-15 38 -11 62 -14 73 -35 127 -11 30 -19 57 -16 59 2 3 -3 19 -12 36 -9 17
-18 40 -20 51 -1 11 -5 31 -7 45 -3 14 -12 67 -20 118 -18 110 -24 132 -37
132 -5 0 -9 11 -9 25 0 14 -9 45 -20 67 -11 23 -20 52 -20 64 0 12 -7 35 -15
50 -8 16 -15 40 -15 53 0 19 -31 66 -89 137 -5 6 -12 26 -16 45 -11 52 -69
149 -140 236 -15 18 -38 50 -52 70 -14 21 -31 41 -37 45 -6 4 -7 8 -3 8 4 0
-4 12 -18 27 -14 15 -25 36 -25 46 0 10 -7 20 -15 23 -8 4 -13 10 -10 14 3 4
-25 39 -61 76 -83 86 -142 163 -173 223 -13 25 -37 57 -54 71 -17 14 -48 40
-68 58 -20 17 -41 32 -46 32 -5 0 -40 31 -78 68 -39 38 -97 90 -130 116 -33
27 -64 54 -68 62 -4 8 -12 14 -18 14 -17 0 -79 45 -79 58 0 6 -5 12 -11 12 -7
0 -19 8 -28 18 -9 9 -32 29 -51 44 -19 14 -63 53 -97 86 -62 61 -150 118 -211
140 -50 17 -174 25 -195 12z m123 -946 c66 -8 88 -10 215 -17 67 -4 197 -46
211 -68 3 -5 19 -9 35 -9 16 0 47 -11 69 -25 22 -14 44 -25 49 -25 4 0 25 -15
46 -34 31 -29 266 -156 288 -156 4 0 38 -22 75 -49 38 -28 94 -60 126 -71 32
-12 72 -35 91 -51 52 -46 112 -129 135 -189 21 -54 60 -139 126 -274 19 -37
34 -75 34 -84 0 -9 8 -34 18 -56 30 -67 62 -151 62 -164 0 -26 -269 0 -307 30
-20 16 -323 29 -583 26 -226 -4 -286 -1 -409 18 -124 18 -182 21 -202 8 -8 -5
-72 -9 -144 -9 -104 0 -145 -4 -205 -22 -110 -32 -571 -68 -667 -52 -26 4 -86
8 -133 8 -47 1 -113 6 -147 11 -95 16 -648 17 -783 2 -63 -7 -135 -15 -160
-18 -25 -2 -81 -9 -125 -14 -123 -15 -145 -14 -145 10 0 11 15 51 33 88 18 37
44 95 58 130 13 35 40 80 59 100 44 45 70 86 70 108 0 9 9 29 21 45 11 16 19
39 17 52 -3 24 48 84 91 107 14 7 30 17 35 22 25 21 132 95 146 100 8 4 58 44
111 90 189 163 190 164 289 208 25 11 60 29 78 40 32 20 163 72 212 85 14 3
34 10 45 15 11 4 61 14 110 21 50 6 95 16 101 21 7 5 36 7 65 6 60 -3 143 9
168 23 9 5 50 12 91 16 92 10 541 7 630 -3z m-342 -1618 c19 -17 47 -58 63
-91 17 -33 39 -69 49 -80 10 -11 19 -24 20 -30 0 -5 20 -32 43 -60 51 -59 57
-68 62 -97 3 -12 17 -34 32 -50 15 -15 24 -28 21 -28 -2 0 16 -22 41 -49 52
-56 96 -81 141 -81 17 0 42 -8 56 -17 15 -10 68 -22 128 -29 55 -7 126 -16
156 -21 30 -5 89 -7 130 -4 45 4 109 0 160 -8 77 -12 89 -12 137 4 41 14 65
16 110 10 74 -10 84 -10 228 8 141 18 143 19 215 72 70 51 91 64 113 72 19 6
94 153 104 205 3 18 19 50 36 71 35 45 43 39 52 -43 3 -30 11 -73 17 -95 6
-22 14 -67 19 -100 5 -33 13 -94 19 -135 30 -200 35 -246 46 -395 10 -133 6
-369 -6 -401 -6 -14 -10 -40 -10 -57 0 -18 -14 -70 -30 -117 -17 -46 -30 -96
-30 -111 0 -15 -4 -30 -9 -34 -5 -3 -15 -31 -22 -62 -7 -32 -21 -65 -31 -75
-10 -10 -18 -24 -18 -32 0 -8 -4 -17 -9 -20 -5 -3 -12 -17 -15 -32 -4 -14 -18
-43 -31 -65 -14 -21 -25 -45 -25 -54 0 -8 -5 -15 -10 -15 -6 0 -18 -17 -28
-37 -9 -21 -23 -42 -29 -46 -7 -4 -13 -14 -13 -21 0 -7 -19 -33 -43 -58 -24
-25 -47 -52 -50 -61 -4 -10 -15 -17 -26 -17 -14 0 -18 -5 -14 -19 3 -13 -3
-25 -21 -36 -14 -10 -26 -22 -26 -28 0 -19 -87 -90 -295 -241 -33 -23 -75 -49
-94 -56 -19 -8 -53 -32 -76 -55 -24 -22 -62 -50 -86 -62 -140 -66 -181 -84
-249 -113 -41 -17 -88 -37 -105 -45 -16 -7 -73 -27 -125 -43 -52 -17 -131 -42
-175 -57 -220 -72 -407 -100 -624 -92 -105 4 -128 8 -152 26 -15 12 -43 21
-62 21 -18 0 -37 4 -43 10 -5 5 -45 14 -89 20 -69 10 -187 41 -263 71 -13 5
-31 9 -40 9 -9 1 -35 9 -57 20 -22 11 -48 19 -57 20 -9 0 -29 6 -45 14 -15 8
-39 19 -53 24 -14 6 -51 22 -82 36 -31 14 -61 26 -65 26 -5 0 -25 14 -45 30
-20 17 -52 37 -71 45 -18 8 -48 28 -66 44 -18 17 -36 31 -39 31 -3 0 -30 20
-61 45 -75 60 -69 56 -125 93 -27 17 -53 32 -57 32 -5 0 -19 10 -31 23 -43 41
-101 87 -111 87 -13 0 -133 112 -129 122 1 4 -4 8 -11 8 -8 0 -33 23 -58 51
-24 27 -56 63 -71 79 -14 17 -32 43 -40 60 -7 16 -16 30 -20 30 -4 0 -10 16
-14 36 -4 19 -13 38 -20 41 -8 3 -12 8 -9 12 2 4 -2 19 -10 34 -7 14 -16 41
-20 59 -4 18 -13 47 -20 63 -17 41 -61 179 -76 240 -6 28 -20 64 -29 80 -10
17 -15 36 -13 43 3 7 -1 20 -8 28 -19 23 -38 81 -45 134 -3 24 -12 59 -19 77
-10 23 -11 42 -4 65 5 18 7 79 3 136 -4 65 -2 107 4 115 7 8 8 26 2 52 -13 53
-12 138 1 249 11 96 37 203 51 212 4 3 8 14 8 24 0 20 33 36 51 25 6 -4 19
-26 29 -49 54 -125 80 -174 97 -179 28 -10 93 -51 133 -84 47 -40 57 -42 195
-59 66 -8 127 -15 135 -16 8 -1 46 2 84 6 56 7 78 5 123 -10 38 -13 56 -15 61
-7 5 7 94 15 252 23 135 6 254 15 265 20 11 5 47 11 80 14 113 10 154 22 188
53 18 17 48 34 69 37 43 8 171 108 186 146 6 14 13 46 15 72 2 26 13 60 23 74
51 72 52 75 86 244 l13 65 53 6 c29 4 56 10 59 13 12 12 59 -8 91 -38z"/>
<path d="M3410 2429 c-19 -5 -105 -18 -190 -29 -158 -19 -201 -27 -325 -55
-38 -9 -128 -23 -200 -31 -71 -8 -137 -17 -145 -20 -8 -4 -64 -10 -125 -15
-60 -5 -166 -15 -235 -23 -69 -8 -174 -19 -235 -25 -60 -6 -157 -16 -215 -22
-58 -6 -118 -12 -134 -14 -35 -2 -98 -68 -72 -73 21 -5 13 -51 -11 -71 -23
-17 -23 -22 0 -141 8 -41 13 -78 10 -82 -2 -5 1 -8 6 -8 6 0 14 -19 17 -41 4
-23 15 -49 25 -58 11 -8 19 -23 19 -32 0 -9 18 -39 40 -65 22 -27 40 -57 40
-67 0 -34 40 -108 64 -117 12 -4 43 -31 67 -59 24 -28 67 -63 94 -77 28 -14
59 -34 70 -44 11 -10 40 -24 65 -31 25 -7 55 -19 67 -27 37 -23 148 -34 366
-37 301 -3 493 21 602 75 33 16 65 30 72 30 28 0 136 61 184 103 30 26 88 71
129 99 69 47 110 91 150 158 8 14 16 55 17 95 1 39 5 102 8 140 3 39 5 104 5
145 0 41 5 110 10 152 15 109 5 138 -72 212 -68 65 -94 73 -168 55z m-36 -218
c4 -5 28 -12 55 -16 70 -10 72 -17 57 -280 -9 -143 -14 -172 -39 -218 -27 -49
-130 -158 -172 -180 -79 -43 -213 -98 -259 -106 -28 -5 -85 -16 -126 -24 -111
-23 -288 -37 -340 -27 -25 4 -90 11 -145 15 -143 9 -325 58 -325 87 0 22 -141
133 -153 121 -5 -4 -18 21 -48 95 -8 17 -17 32 -21 32 -5 0 -8 7 -8 16 0 9 -8
23 -19 32 -10 10 -29 37 -41 62 -12 25 -26 53 -31 62 -7 13 0 20 34 32 23 9
73 27 111 41 37 14 81 25 96 25 44 0 204 36 239 54 32 17 71 25 306 65 61 11
130 25 155 31 25 6 72 16 105 20 33 5 85 15 115 23 30 7 100 15 156 16 55 1
122 8 150 15 58 16 140 20 148 7z"/>
</g>
</svg>
