<?xml version="1.0" standalone="no"?>
<!DOCTYPE svg PUBLIC "-//W3C//DTD SVG 20010904//EN"
 "http://www.w3.org/TR/2001/REC-SVG-20010904/DTD/svg10.dtd">
<svg version="1.0" xmlns="http://www.w3.org/2000/svg"
 width="547.000000pt" height="584.000000pt" viewBox="0 0 547.000000 584.000000"
 preserveAspectRatio="xMidYMid meet">
<metadata>
Created by potrace 1.11, written by Peter Selinger 2001-2013
</metadata>
<g transform="translate(0.000000,584.000000) scale(0.100000,-0.100000)"
fill="#000000" stroke="none">
<path d="M2844 5720 c-29 -4 -57 -11 -63 -15 -7 -3 -67 -10 -134 -15 -67 -5
-142 -16 -166 -24 -24 -9 -54 -16 -68 -16 -28 0 -112 -34 -248 -100 -55 -27
-127 -56 -160 -65 -33 -10 -76 -26 -95 -36 -19 -10 -89 -42 -155 -70 -66 -27
-141 -64 -168 -80 -26 -16 -52 -29 -57 -29 -10 0 -332 -214 -435 -290 -98 -71
-313 -278 -390 -375 -39 -49 -101 -135 -138 -190 -37 -55 -86 -127 -109 -160
-71 -102 -138 -240 -138 -285 0 -50 -28 -154 -90 -340 -39 -116 -50 -164 -55
-240 -4 -52 -16 -144 -27 -205 -18 -100 -20 -135 -14 -385 6 -283 20 -414 52
-486 9 -22 61 -167 114 -324 144 -423 162 -468 262 -670 113 -228 220 -390
347 -526 89 -95 209 -194 235 -194 11 0 176 -107 243 -157 23 -17 59 -37 80
-44 21 -6 74 -26 118 -44 112 -45 406 -135 441 -135 16 0 49 -9 73 -20 108
-49 358 -80 656 -80 258 1 350 11 565 67 192 50 231 61 244 72 25 21 193 79
248 86 32 3 60 10 63 15 3 5 29 16 58 25 28 10 70 27 92 40 22 12 56 27 75 34
19 6 71 38 115 71 44 33 100 69 124 81 59 28 141 100 198 173 25 34 70 86 98
116 46 48 97 126 198 301 15 26 42 86 62 134 19 48 50 108 69 134 19 25 48 75
65 110 16 35 35 69 40 75 6 7 31 52 56 100 45 86 65 153 101 341 9 44 22 109
30 145 7 36 18 133 24 216 9 127 8 161 -5 215 -8 35 -18 105 -21 154 -3 50
-13 109 -21 132 -8 23 -12 46 -9 51 7 11 -8 92 -29 162 -7 25 -16 63 -20 85
-3 22 -20 83 -36 135 -16 52 -29 107 -29 122 0 42 -46 241 -85 363 -19 61 -38
126 -41 145 -4 19 -13 47 -20 62 -8 15 -14 35 -14 45 0 10 -9 37 -21 58 -11
22 -29 68 -40 101 -10 34 -27 72 -38 85 -47 60 -123 205 -172 329 -68 172
-192 363 -351 541 -70 78 -257 218 -365 273 -58 30 -253 109 -333 136 -24 8
-171 34 -255 45 -22 3 -76 10 -120 15 -102 14 -344 19 -411 10z m496 -244 c25
-4 74 -13 110 -21 36 -7 103 -18 150 -25 105 -14 288 -65 358 -98 49 -24 190
-150 276 -248 84 -96 231 -319 268 -409 14 -33 44 -103 66 -156 53 -128 88
-195 128 -251 59 -81 214 -576 214 -684 0 -18 10 -63 21 -100 22 -72 64 -241
106 -429 30 -133 54 -304 47 -327 -3 -10 2 -45 12 -78 12 -42 14 -74 9 -107
-4 -27 -10 -109 -14 -183 -4 -74 -12 -148 -19 -163 -7 -16 -12 -42 -12 -58 0
-16 -13 -56 -29 -87 -17 -31 -39 -92 -51 -135 -36 -136 -86 -257 -146 -350
-24 -37 -58 -94 -75 -125 -16 -31 -45 -80 -62 -109 -18 -29 -63 -107 -102
-173 -57 -100 -88 -141 -170 -223 -55 -56 -125 -122 -155 -148 -74 -61 -202
-129 -330 -174 -119 -42 -163 -58 -309 -115 -61 -24 -120 -40 -145 -40 -22 0
-57 -5 -76 -10 -94 -28 -714 -60 -995 -51 l-220 7 -178 52 c-189 56 -280 87
-312 108 -11 7 -46 20 -78 28 -31 8 -67 22 -79 30 -12 9 -30 16 -39 16 -9 0
-43 14 -74 30 -31 17 -67 30 -79 30 -34 0 -246 157 -246 183 0 5 -33 41 -73
82 -72 72 -83 89 -178 275 -26 52 -66 120 -88 150 -139 189 -163 247 -284 670
-25 85 -55 180 -67 210 -27 66 -41 168 -45 315 -1 61 -7 168 -13 238 -10 108
-9 134 3 164 8 19 15 71 16 116 1 45 15 154 31 242 15 88 31 194 35 235 7 89
17 112 45 108 26 -4 43 -56 51 -164 3 -43 12 -97 20 -119 8 -22 17 -71 21
-110 10 -102 27 -173 45 -189 15 -14 49 -27 206 -83 66 -23 79 -24 205 -18 74
3 153 5 175 5 235 -6 459 -5 498 1 26 5 92 11 145 15 88 5 285 43 339 64 12 5
43 37 68 72 39 54 45 68 45 113 0 33 7 60 20 80 11 17 20 36 20 43 0 8 14 48
32 90 30 74 31 82 33 235 2 177 0 173 79 202 44 16 57 17 132 5 56 -9 89 -19
100 -31 15 -16 18 -61 24 -321 5 -189 12 -314 20 -333 24 -62 64 -89 210 -143
93 -34 399 -42 880 -22 364 16 572 50 612 102 9 12 18 37 18 54 0 18 13 57 29
88 39 73 47 132 30 219 -10 57 -10 86 0 161 7 50 15 175 17 278 5 176 4 188
-15 207 -42 42 -99 44 -434 20 -123 -9 -195 -10 -265 -2 -63 7 -107 7 -127 1
-16 -6 -124 -12 -240 -14 -168 -3 -225 -8 -287 -24 -62 -16 -106 -20 -218 -18
-131 1 -143 0 -168 -21 -67 -53 -104 -73 -144 -77 -24 -3 -59 -10 -79 -16 -28
-8 -48 -7 -92 6 -30 9 -62 13 -71 10 -23 -9 -49 10 -71 52 -42 79 -118 94
-440 86 -107 -3 -289 15 -390 38 -114 27 -642 -30 -813 -87 -49 -16 -53 -16
-69 0 -16 16 -15 20 26 77 23 33 48 78 55 98 8 21 31 65 52 98 50 79 351 378
489 485 162 126 365 257 451 290 41 16 91 40 112 54 20 14 43 25 52 25 8 0 31
10 50 22 39 24 107 45 290 88 69 17 147 37 174 45 27 8 81 15 120 15 39 0 105
5 146 11 232 33 558 45 680 25z m635 -1419 c250 14 275 15 308 4 71 -24 72
-28 73 -265 1 -148 -3 -222 -12 -247 -8 -24 -10 -64 -7 -116 6 -88 -10 -142
-52 -169 -31 -20 -160 -37 -305 -40 -69 -1 -164 -5 -211 -9 -59 -5 -98 -4
-123 5 -23 7 -108 11 -238 11 -148 0 -210 4 -234 14 -18 8 -53 17 -78 20 -55
9 -101 36 -125 75 -14 24 -20 63 -26 183 -16 296 -15 368 6 409 43 85 135 110
419 115 107 2 245 7 305 12 61 4 146 6 190 2 44 -3 94 -5 110 -4z m-1828 -26
c55 -15 71 -43 88 -156 18 -120 8 -252 -29 -382 -14 -51 -26 -100 -26 -110 0
-35 -51 -123 -81 -138 -18 -10 -59 -15 -121 -15 -106 -1 -227 -11 -408 -35
-73 -10 -154 -15 -195 -12 -38 3 -177 8 -309 11 -229 5 -239 6 -262 27 -19 18
-24 33 -24 74 0 29 -11 86 -24 126 -49 152 -58 206 -51 295 6 62 13 91 28 110
18 23 19 29 6 66 -17 52 0 86 55 104 33 12 256 37 421 47 125 8 895 -2 932
-12z"/>
<path d="M3675 2558 c-42 -17 -61 -19 -120 -13 -38 4 -173 6 -300 5 -187 -2
-247 -6 -320 -22 -69 -15 -140 -21 -305 -25 -206 -4 -600 -17 -800 -27 -115
-5 -125 -9 -142 -49 -16 -40 -17 -185 -1 -288 13 -83 60 -213 96 -268 13 -20
39 -60 57 -89 44 -71 171 -186 245 -221 33 -16 90 -36 127 -45 36 -9 93 -26
125 -37 32 -11 83 -25 113 -30 30 -5 75 -13 100 -18 25 -5 126 -10 225 -11
207 -2 216 -1 270 10 22 5 76 14 120 21 44 7 91 17 105 24 14 6 52 17 85 24
113 24 188 88 301 258 48 73 69 120 121 273 62 180 64 189 74 332 11 166 8
181 -46 204 -45 18 -70 17 -130 -8z m-36 -187 c17 -17 19 -30 14 -118 -10
-167 -78 -306 -233 -471 -131 -139 -229 -186 -455 -215 -44 -5 -102 -10 -130
-10 -54 0 -336 36 -400 52 -22 5 -65 14 -96 21 -88 17 -159 68 -228 163 -32
45 -69 91 -81 102 -12 11 -35 49 -51 85 -25 53 -31 83 -36 170 -5 87 -3 111
11 138 17 33 51 48 88 39 11 -3 48 1 81 10 36 9 78 13 101 9 143 -20 702 -11
881 15 39 6 158 14 265 18 107 4 207 8 223 9 15 1 35 -6 46 -17z"/>
<path d="M3620 3975 c-16 -9 -55 -14 -107 -15 -71 0 -86 -3 -104 -21 -17 -17
-20 -27 -13 -53 4 -17 7 -89 5 -161 -3 -110 -6 -134 -23 -158 -19 -26 -19 -30
-4 -68 9 -21 16 -57 16 -77 0 -28 7 -45 24 -61 24 -23 43 -27 169 -36 l78 -5
44 46 c29 29 47 59 52 82 3 21 7 134 7 252 1 234 -2 248 -54 275 -36 18 -58
19 -90 0z"/>
<path d="M1430 3953 c-67 -45 -72 -52 -95 -120 -16 -47 -17 -62 -7 -112 7 -35
10 -87 6 -134 -6 -71 -5 -79 18 -114 14 -21 31 -62 38 -91 20 -88 28 -93 143
-86 112 8 137 21 155 81 29 97 53 269 59 415 4 106 4 106 -25 139 -26 29 -38
34 -93 40 -35 4 -82 10 -104 13 -35 6 -47 2 -95 -31z"/>
</g>
</svg>
